# AST/ASF file generated using VICON BodyLanguage
# -----------------------------------------------
:version 1.10
:name VICON
:units
  mass 1.0
  length 0.45
  angle deg
:documentation
   .ast/.asf automatically generated from VICON data using
   VICON BodyBuilder and BodyLanguage model FoxedUp or BRILLIANT.MOD
:root
   order TX TY TZ RX RY RZ
   axis XYZ
   position 0 0 0  
   orientation 0 -0 0 
:bonedata
  begin
     id 1 
     name lhipjoint
     direction 0.500677 -0.737119 0.453848 
     length 2.34727 
     axis 0 -0 0  XYZ
  end
  begin
     id 2 
     name lfemur
     direction 0.34202 -0.939693 0  
     length 7.53653  
     axis 0 -0 20  XYZ
    dof rx ry rz
    limits (-160.0 20.0)
           (-70.0 70.0)
           (-60.0 70.0)
  end
  begin
     id 3 
     name ltibia
     direction 0.34202 -0.939693 0   
     length 6.85572   
     axis 0 -0 20   XYZ
    dof rx
    limits (-10.0 170.0)
  end
  begin
     id 4 
     name lfoot
     direction 0.155313 -0.426718 0.890949   
     length 2.18324   
     axis -90 -1.13533e-015 20   XYZ
    dof rx rz
    limits (-45.0 90.0)
           (-70.0 20.0)
  end
  begin
     id 5 
     name ltoes
     direction 1.53474e-011 -4.21647e-011 1   
     length 1.06748   
     axis -90 -1.13533e-015 20   XYZ
    dof rx
    limits (-90.0 20.0)
  end
  begin
     id 6 
     name rhipjoint
     direction -0.632471 -0.659587 0.406111   
     length 2.62319  
     axis 0 -0 0  XYZ 
  end
  begin
     id 7 
     name rfemur
     direction -0.34202 -0.939693 0   
     length 7.21735   
     axis 0 -0 -20   XYZ
    dof rx ry rz
    limits (-160.0 20.0)
           (-70.0 70.0)
           (-70.0 60.0)
  end
  begin
     id 8 
     name rtibia
     direction -0.34202 -0.939693 0   
     length 7.02558   
     axis 0 -0 -20   XYZ
    dof rx
    limits (-10.0 170.0)
 end
 begin
     id 9 
     name rfoot
     direction -0.16057 -0.441164 0.882945   
     length 2.10014  
     axis -90 1.13533e-015 -20   XYZ
    dof rx rz
    limits (-45.0 90.0)
           (-20.0 70.0)
  end
  begin
     id 10 
     name rtoes
     direction -1.53553e-011 -4.2192e-011 1   
     length 1.02554   
     axis -90 1.13533e-015 -20   XYZ
    dof rx
    limits (-90.0 20.0)
  end
  begin
     id 11 
     name lowerback
     direction 0.0401429 0.998861 -0.0258085   
     length 1.80848   
     axis 0 -0 0   XYZ
    dof rx ry rz
    limits (-20.0 45.0)
           (-30.0 30.0)
           (-30.0 30.0)
  end
  begin
     id 12 
     name upperback
     direction -0.0130978 0.999914 -0.000352645   
     length 1.8116   
     axis 0 -0 0   XYZ
    dof rx ry rz
    limits (-20.0 45.0)
           (-30.0 30.0)
           (-30.0 30.0)
  end
  begin
     id 13 
     name thorax
     direction -0.0300198 0.999453 0.0138573   
     length 1.81778   
     axis 0 -0 0   XYZ
    dof rx ry rz
    limits (-20.0 45.0)
           (-30.0 30.0)
           (-30.0 30.0)
  end
  begin
     id 14 
     name lowerneck
     direction -0.0401726 0.999191 -0.00173647   
     length 2.10594   
     axis 0 -0 0   XYZ
    dof rx ry rz
    limits (-20.0 45.0)
           (-30.0 30.0)
           (-30.0 30.0)
  end
  begin
     id 15 
     name upperneck
     direction 0.0119835 0.998501 0.0534085   
     length 2.07325   
     axis 0 -0 0   XYZ
    dof rx ry rz
    limits (-20.0 45.0)
           (-30.0 30.0)
           (-30.0 30.0)
  end
  begin
     id 16
     name head
     direction 0.00628309 0.999826 0.0175921  
     length 2.15096  
     axis 0 -0 0   XYZ
    dof rx ry rz
    limits (-20.0 45.0)
           (-30.0 30.0)
           (-30.0 30.0)
  end
  begin
     id 17 
     name lclavicle
     direction 0.895501 0.429681 -0.115981  
     length 4.18092  
     axis 0 -0 0   XYZ
    dof ry rz
    limits (-20.0 10.0)
           (0.0 20.0)
  end
  begin
     id 18 
     name lhumerus
     direction 1 -4.48961e-011 -3.38433e-028   
     length 5.77237   
     axis 180 -30 -90   XYZ
    dof rx ry rz
    limits (-60.0 90.0)
           (-90.0 90.0)
           (-90.0 90.0)
  end
  begin
     id 19
     name lradius
     direction 1 -4.4901e-011 1.11983e-026   
     length 2.91878   
     axis 180 -30 -90   XYZ
    dof rx
    limits (-10.0 170.0)
  end
  begin
     id 20
     name lwrist
     direction 1 -4.48934e-011 1.88176e-026   
     length 1.45939   
     axis -1.23311e-014 90 90   XYZ
    dof ry
    limits (-180.0 0.0)
 end
  begin
     id 21 
     name lhand
     direction 1 -4.4895e-011 3.76352e-026   
     length 1.06566   
     axis -2.40147e-014 90 90   XYZ
    dof rx rz
    limits (-90.0 90.0)
           (-45.0 45.0)
  end
  begin
     id 22 
     name lfingers
     direction 1 -4.49005e-011 7.52705e-026   
     length 0.859162   
     axis -4.80295e-014 90 90   XYZ
    dof rx
    limits (0.0 90.0)
  end
  begin
     id 23
     name lthumb
     direction 0.707107 -6.34885e-011 0.707107   
     length 1.23359   
     axis -90 45 -9.86935e-015   XYZ
    dof rx rz
    limits (-45.0 45.0)
           (-45.0 45.0)
  end
  begin
     id 24 
     name rclavicle
     direction -0.91006 0.40451 -0.0903492   
     length 4.23293  
     axis 0 -0 0   XYZ 
    dof ry rz
    limits (-10.0 20.0)
           (-20.0 0.0)
  end
  begin
     id 25 
     name rhumerus
     direction -1 -4.4897e-011 1.7415e-027  
     length 5.49854   
     axis 180 30 90   XYZ
    dof rx ry rz
    limits (-90.0 60.0)
           (-90.0 90.0)
           (-90.0 90.0)
  end
  begin
     id 26 
     name rradius
     direction -1 -4.48963e-011 1.21259e-026   
     length 3.1186   
     axis 180 30 90   XYZ
    dof rx
    limits (-10.0 170.0)
  end
  begin
     id 27 
     name rwrist
     direction -1 -4.48967e-011 1.88176e-026   
     length 1.5593   
     axis -1.23311e-014 -90 -90   XYZ
    dof ry
    limits (-180.0 0.0)
  end
  begin
     id 28
     name rhand
     direction -1 -4.4895e-011 3.76352e-026   
     length 0.71207   
     axis -2.40147e-014 -90 -90   XYZ
    dof rx rz
    limits (-90.0 90.0)
           (-45.0 45.0)
  end
  begin
     id 29
     name rfingers
     direction -1 -4.49005e-011 7.52705e-026   
     length 0.574089   
     axis -4.80295e-014 -90 -90   XYZ
    dof rx
    limits (0.0 90.0)
  end
  begin
     id 30
     name rthumb
     direction -0.707107 -6.34982e-011 0.707107   
     length 0.824281   
     axis -90 -45 9.86935e-015   XYZ
    dof rx rz
    limits (-45.0 45.0)
           (-45.0 45.0)
  end
:hierarchy
  begin
    root lhipjoint rhipjoint lowerback
    lhipjoint lfemur
    lfemur ltibia
    ltibia lfoot
    lfoot ltoes
    rhipjoint rfemur
    rfemur rtibia
    rtibia rfoot
    rfoot rtoes
    lowerback upperback
    upperback thorax
    thorax lowerneck lclavicle rclavicle
    lowerneck upperneck
    upperneck head
    lclavicle lhumerus
    lhumerus lradius
    lradius lwrist
    lwrist lhand lthumb
    lhand lfingers
    rclavicle rhumerus
    rhumerus rradius
    rradius rwrist
    rwrist rhand rthumb
    rhand rfingers
  end

#!OML:ASF C:\ViconDB\ViconDB\414\Spring2016\042216\male.ASF
:FULLY-SPECIFIED
:DEGREES
634
root 13.04 17.9686 18.0391 -172.926 40.7188 -175.891
lowerback -3.25925 -3.3744 2.4878
upperback -0.581247 -4.57129 -0.00210798
thorax 1.03125 -2.2717 -1.57017
lowerneck -0.552221 -4.85931 -11.224
upperneck -6.66886 -5.67001 15.598
head -1.02401 -2.78725 6.59971
rclavicle 8.05078e-015 -6.36111e-015
rhumerus -29.2923 -0.72936 -89.5444
rradius 44.6306
rwrist 14.6476
rhand 9.90569 -18.1715
rfingers 7.12502
rthumb 35.0369 -44.7189
lclavicle 8.05078e-015 -6.36111e-015
lhumerus -30.1853 18.1628 77.2371
lradius 35.8636
lwrist -6.35246
lhand -9.33439 11.1758
lfingers 7.12502
lthumb 16.6245 40.4838
rfemur -10.9257 3.34596 22.1768
rtibia 22.6487
rfoot -13.0888 4.86386
rtoes -15.5506
lfemur 2.98513 -2.86171 -21.3265
ltibia 18.0389
lfoot -11.8587 12.1836
ltoes -31.7932
635
root 13.0662 17.9727 18.0202 -173.101 40.8657 -176.265
lowerback -3.32704 -3.40055 2.11584
upperback -0.516952 -4.59614 -0.0860217
thorax 1.15639 -2.28369 -1.45837
lowerneck -0.495455 -4.9442 -11.438
upperneck -6.78981 -5.7512 16.0688
head -1.03081 -2.83027 6.78722
rclavicle -1.13494e-013 -9.54166e-015
rhumerus -29.027 0.289564 -90.3325
rradius 46.2538
rwrist 13.689
rhand 10.1367 -18.2605
rfingers 7.12502
rthumb 35.256 -44.7563
lclavicle -1.13494e-013 -9.54166e-015
lhumerus -30.2651 18.4843 77.0403
lradius 36.0491
lwrist -5.63172
lhand -9.25635 11.5452
lfingers 7.12502
lthumb 16.6997 40.8469
rfemur -11.8051 3.34359 22.0928
rtibia 22.2493
rfoot -12.5288 6.29093
rtoes -13.8837
lfemur 3.43877 -2.84561 -21.6306
ltibia 17.1129
lfoot -11.4928 12.2417
ltoes -32.1146
636
root 13.0969 17.9703 17.9964 -173.565 41.1043 -176.781
lowerback -3.25867 -3.38024 1.64315
upperback -0.433948 -4.55242 -0.178817
thorax 1.23437 -2.26298 -1.28906
lowerneck -0.661087 -4.87919 -11.1795
upperneck -6.62145 -5.68085 15.7434
head -0.985963 -2.78933 6.63374
rclavicle 4.14715e-014 6.75868e-015
rhumerus -28.8442 0.936498 -91.0911
rradius 47.6728
rwrist 13.0858
rhand 9.86603 -18.1956
rfingers 7.12502
rthumb 34.9993 -44.7519
lclavicle 4.14715e-014 6.75868e-015
lhumerus -30.3705 18.4899 77.0208
lradius 36.0334
lwrist -5.20035
lhand -9.40636 11.5104
lfingers 7.12502
lthumb 16.5552 40.8242
rfemur -12.4453 2.34373 21.9599
rtibia 21.9563
rfoot -10.7484 8.26128
rtoes -15.0432
lfemur 4.06985 -2.74462 -22.0804
ltibia 16.3635
lfoot -11.1483 12.535
ltoes -32.303
637
root 13.1253 17.9651 17.9791 -173.899 41.07 -177.09
lowerback -3.07334 -3.44677 1.35799
upperback -0.404463 -4.6285 -0.259096
thorax 1.17449 -2.30304 -1.20478
lowerneck -0.538807 -4.91007 -11.3268
upperneck -6.64867 -5.71324 16.0857
head -0.991185 -2.81107 6.77019
rclavicle 4.00551e-014 0
rhumerus -28.8261 1.70383 -91.9095
rradius 49.1598
rwrist 12.6201
rhand 9.98447 -18.2984
rfingers 7.12502
rthumb 35.1116 -44.8283
lclavicle 4.00551e-014 0
lhumerus -30.4721 17.8336 77.1099
lradius 36.0452
lwrist -4.28115
lhand -9.36442 11.612
lfingers 7.12502
lthumb 16.5956 40.9225
rfemur -12.9624 1.33136 22.0377
rtibia 21.7212
rfoot -8.71397 9.66116
rtoes -14.7343
lfemur 4.52587 -2.57956 -22.2556
ltibia 15.8728
lfoot -10.8927 12.4022
ltoes -32.05
638
root 13.1512 17.9527 17.9592 -174.355 40.8799 -177.449
lowerback -2.78371 -3.56755 1.10367
upperback -0.371847 -4.77831 -0.325137
thorax 1.05684 -2.38026 -1.11802
lowerneck -0.462483 -4.86383 -11.361
upperneck -6.5425 -5.67487 16.0605
head -0.979123 -2.79509 6.76879
rclavicle 1.00486e-013 5.96354e-015
rhumerus -28.8246 2.48539 -92.6252
rradius 50.4469
rwrist 12.1799
rhand 10.0922 -18.1919
rfingers 7.12502
rthumb 35.2138 -44.6978
lclavicle 1.00486e-013 5.96354e-015
lhumerus -30.6632 17.6489 77.1734
lradius 35.8737
lwrist -4.33135
lhand -9.28966 11.5902
lfingers 7.12502
lthumb 16.6676 40.8946
rfemur -13.2289 0.329956 22.0879
rtibia 21.6091
rfoot -6.39809 10.3585
rtoes -11.4624
lfemur 5.00187 -2.53264 -22.4644
ltibia 15.5285
lfoot -10.7402 12.0134
ltoes -31.753
639
root 13.1767 17.9462 17.9429 -174.431 40.9138 -177.56
lowerback -2.64455 -3.59198 0.95977
upperback -0.426445 -4.80514 -0.298882
thorax 0.936497 -2.39526 -1.00061
lowerneck -0.401653 -4.86567 -11.4197
upperneck -6.46708 -5.69793 16.0319
head -0.964009 -2.80867 6.76929
rclavicle 1.27272e-013 1.07344e-014
rhumerus -28.8631 3.32712 -93.3076
rradius 51.6669
rwrist 11.7731
rhand 9.77686 -18.2365
rfingers 7.12502
rthumb 34.9147 -44.8125
lclavicle 1.27272e-013 1.07344e-014
lhumerus -30.9903 16.9246 77.4485
lradius 35.929
lwrist -4.32019
lhand -8.95495 11.553
lfingers 7.12502
lthumb 16.9898 40.83
rfemur -13.5433 -0.559272 22.3223
rtibia 21.5109
rfoot -4.20327 10.5468
rtoes -6.06062
lfemur 5.10371 -2.27798 -22.4865
ltibia 15.482
lfoot -10.7631 11.7933
ltoes -31.9549
640
root 13.2041 17.9426 17.9172 -174.682 40.8564 -177.598
lowerback -2.37935 -3.64872 0.921482
upperback -0.439857 -4.87851 -0.256168
thorax 0.779843 -2.43356 -0.918665
lowerneck -0.0849292 -4.91361 -11.8002
upperneck -6.45913 -5.79274 16.3265
head -0.977895 -2.86785 6.93423
rclavicle 4.34593e-014 -9.54166e-015
rhumerus -28.9907 4.14221 -93.966
rradius 52.7178
rwrist 11.4151
rhand 10.0252 -18.2997
rfingers 7.12502
rthumb 35.1503 -44.8205
lclavicle 4.34593e-014 -9.54166e-015
lhumerus -31.1455 16.0852 77.8014
lradius 35.6105
lwrist -4.57976
lhand -8.95195 11.5784
lfingers 7.12502
lthumb 16.9927 40.8551
rfemur -13.2774 -1.23072 22.5619
rtibia 21.4274
rfoot -3.83435 10.3582
rtoes -5.96478
lfemur 5.32482 -2.05017 -22.4511
ltibia 15.778
lfoot -10.9286 11.6232
ltoes -32.1186
641
root 13.2314 17.9359 17.8908 -174.763 40.8503 -177.501
lowerback -2.2153 -3.64387 1.1281
upperback -0.502401 -4.87465 -0.278941
thorax 0.605012 -2.43279 -1.04107
lowerneck 0.0313164 -4.92252 -11.6719
upperneck -6.24053 -5.85378 16.1268
head -0.9387 -2.90411 6.84613
rclavicle 3.10912e-014 -7.95139e-015
rhumerus -29.2341 4.9982 -94.7076
rradius 53.6627
rwrist 11.1335
rhand 9.94926 -18.1629
rfingers 7.12502
rthumb 35.0782 -44.7006
lclavicle 3.10912e-014 -7.95139e-015
lhumerus -31.4405 15.6102 77.9729
lradius 35.313
lwrist -5.44696
lhand -8.44753 11.5124
lfingers 7.12502
lthumb 17.4782 40.7467
rfemur -12.8235 -1.01725 22.7522
rtibia 21.3581
rfoot -4.19541 9.60982
rtoes -6.10189
lfemur 5.35312 -1.92015 -22.3443
ltibia 16.2912
lfoot -11.1643 11.6452
ltoes -32.3388
642
root 13.2585 17.9138 17.864 -174.768 40.6699 -177.381
lowerback -2.18666 -3.69366 1.36565
upperback -0.556057 -4.94556 -0.237203
thorax 0.5158 -2.46884 -1.12659
lowerneck 0.144523 -4.90642 -11.6359
upperneck -5.99304 -5.8922 15.8431
head -0.89453 -2.92728 6.74729
rclavicle 2.24751e-014 5.56597e-015
rhumerus -29.3656 5.74199 -95.3711
rradius 54.3424
rwrist 11.0182
rhand 10.3149 -18.0553
rfingers 7.12502
rthumb 35.425 -44.5111
lclavicle 2.24751e-014 5.56597e-015
lhumerus -31.7324 14.9872 78.3721
lradius 35.1099
lwrist -6.16509
lhand -8.16722 11.5225
lfingers 7.12502
lthumb 17.7479 40.7325
rfemur -12.3136 -0.623505 22.9219
rtibia 21.3497
rfoot -4.52314 9.30181
rtoes -5.42461
lfemur 5.27854 -1.78244 -22.1774
ltibia 16.8974
lfoot -11.2698 11.5221
ltoes -32.4067
643
root 13.2861 17.8938 17.8324 -174.906 40.5778 -177.297
lowerback -2.04566 -3.7048 1.60044
upperback -0.619255 -4.96246 -0.22361
thorax 0.353057 -2.47901 -1.22931
lowerneck 0.255293 -4.89004 -12.035
upperneck -5.60593 -5.93033 16.0546
head -0.775987 -2.94706 6.87632
rclavicle 4.33599e-015 -2.38542e-015
rhumerus -29.6886 6.66977 -95.9624
rradius 54.9974
rwrist 10.5112
rhand 10.4499 -17.8221
rfingers 7.12502
rthumb 35.5529 -44.2472
lclavicle 4.33599e-015 -2.38542e-015
lhumerus -31.9992 14.425 78.7811
lradius 34.7011
lwrist -7.05153
lhand -7.85816 11.4804
lfingers 7.12502
lthumb 18.0453 40.6633
rfemur -11.7202 -0.374482 23.1013
rtibia 21.2905
rfoot -4.77817 9.25004
rtoes -4.77411
lfemur 5.2771 -1.6794 -22.096
ltibia 17.6245
lfoot -11.5021 11.5275
ltoes -32.5809
644
root 13.3177 17.8824 17.7993 -175.179 40.3271 -177.338
lowerback -1.8783 -3.84036 1.55783
upperback -0.638584 -5.14001 -0.15168
thorax 0.244368 -2.56884 -1.12229
lowerneck 0.234962 -4.95862 -12.1433
upperneck -5.18305 -6.08399 15.9366
head -0.631131 -3.02064 6.84433
rclavicle -5.89303e-014 -3.18055e-015
rhumerus -29.9381 7.76925 -96.605
rradius 55.4642
rwrist 10.1118
rhand 10.8504 -17.5358
rfingers 7.12502
rthumb 35.9325 -43.8689
lclavicle -5.89303e-014 -3.18055e-015
lhumerus -32.3075 14.0387 79.2315
lradius 34.4609
lwrist -8.18265
lhand -7.52377 11.7039
lfingers 7.12502
lthumb 18.367 40.8568
rfemur -11.1299 -0.636481 23.2116
rtibia 21.217
rfoot -5.23524 9.24043
rtoes -5.33708
lfemur 5.35297 -1.58042 -22.0709
ltibia 18.3109
lfoot -11.7482 11.381
ltoes -32.5755
645
root 13.3502 17.8682 17.7596 -175.431 40.2594 -177.408
lowerback -1.83826 -3.82528 1.66768
upperback -0.687616 -5.12014 -0.17096
thorax 0.160959 -2.55996 -1.19674
lowerneck 0.363734 -4.98263 -12.1373
upperneck -4.7518 -6.19208 15.7236
head -0.52313 -3.07887 6.76825
rclavicle -3.02463e-014 -3.18055e-015
rhumerus -30.2178 8.48491 -97.1933
rradius 55.6783
rwrist 10.009
rhand 10.9833 -17.2148
rfingers 7.12502
rthumb 36.0584 -43.517
lclavicle -3.02463e-014 -3.18055e-015
lhumerus -32.54 13.179 79.8915
lradius 34.0876
lwrist -8.50786
lhand -7.58057 11.9449
lfingers 7.12502
lthumb 18.3124 41.1029
rfemur -10.6114 0.51283 23.2711
rtibia 21.1551
rfoot -5.77429 7.82994
rtoes -5.64781
lfemur 5.49773 -1.30788 -22.105
ltibia 18.8492
lfoot -11.8883 11.2797
ltoes -32.804
